<?xml version="1.0" standalone="no"?>
<!DOCTYPE svg PUBLIC "-//W3C//DTD SVG 20010904//EN"
 "http://www.w3.org/TR/2001/REC-SVG-20010904/DTD/svg10.dtd">
<svg version="1.0" xmlns="http://www.w3.org/2000/svg"
 width="700.000000pt" height="700.000000pt" viewBox="0 0 700.000000 700.000000"
 preserveAspectRatio="xMidYMid meet">
<metadata>
Created by potrace 1.14, written by Peter Selinger 2001-2017
</metadata>
<g transform="translate(0.000000,700.000000) scale(0.100000,-0.100000)"
fill="#000000" stroke="none">
<path d="M4789 6355 l-475 -240 1 -675 c1 -371 3 -678 4 -681 1 -6 930 456
944 470 4 4 6 313 5 687 l-3 679 -476 -240z"/>
<path d="M5748 5468 l-478 -239 -1 -1107 c0 -609 -2 -1125 -5 -1147 -4 -39
-19 -141 -29 -200 -3 -16 -15 -64 -27 -105 -117 -425 -381 -785 -750 -1024
-197 -128 -381 -202 -628 -253 -107 -22 -153 -26 -315 -27 -116 0 -223 4 -275
13 -116 18 -275 57 -335 82 -11 5 -43 17 -72 28 -342 132 -672 414 -865 740
-101 171 -187 392 -213 546 -20 115 -25 150 -31 210 -4 39 -7 156 -7 260 0
105 -1 193 -3 197 -2 3 -216 -99 -475 -229 l-471 -235 6 -54 c3 -30 9 -80 12
-111 4 -32 8 -67 10 -78 2 -11 9 -47 14 -80 50 -301 183 -657 350 -930 39 -65
135 -205 165 -243 163 -204 344 -385 510 -509 61 -46 115 -86 120 -91 23 -18
196 -122 275 -165 156 -84 439 -194 588 -228 26 -6 56 -13 67 -15 53 -12 174
-36 210 -40 22 -3 51 -7 65 -10 163 -27 532 -22 750 10 150 23 435 96 525 135
11 5 47 19 80 32 71 26 314 146 377 185 436 273 764 611 995 1029 164 296 277
641 318 965 3 25 8 63 12 85 7 39 17 2515 11 2731 l-3 111 -477 -239z"/>
<path d="M2195 5059 c-253 -127 -464 -236 -470 -243 -11 -14 -13 -1341 -2
-1352 6 -6 924 449 942 467 13 13 13 1359 0 1358 -5 0 -217 -104 -470 -230z"/>
<path d="M3490 4339 l-815 -408 0 -428 c-1 -317 3 -449 13 -507 59 -347 341
-618 697 -671 49 -7 191 -7 225 0 14 3 41 8 60 11 19 4 66 18 104 31 212 76
398 258 484 473 56 140 55 125 56 1043 1 467 -1 852 -4 857 -3 4 -372 -176
-820 -401z"/>
</g>
</svg>
